# Blender 5.2.0 LTS
# www.blender.org
mtllib thingy.mtl
o Cube
v 0.354336 2.033089 -1.212315
v 1.000000 -2.033089 -1.000000
v 0.354336 2.033089 1.212315
v 1.000000 -2.033089 1.000000
v -0.354336 2.033089 -1.212315
v -1.000000 -2.033089 -1.000000
v -0.354336 2.033089 1.212315
v -1.000000 -2.033089 1.000000
v 0.545587 3.529902 -0.587726
v 0.545587 3.529902 0.587726
v -0.545587 3.529902 -0.587726
v -0.545587 3.529902 0.587726
v 0.194091 2.033089 1.974670
v -0.194091 2.033089 1.974670
v -0.194091 2.033089 -1.974670
v 0.194091 2.033089 -1.974670
v 0.366418 3.563515 2.186985
v -0.366418 3.563515 2.186985
v -0.366418 3.563515 -2.186985
v 0.366418 3.563515 -2.186985
v 0.615919 2.033089 1.000000
v -0.615919 2.033089 1.000000
v -0.615919 2.033089 -1.000000
v 0.615919 2.033089 -1.000000
v 0.366418 2.033089 2.186985
v -0.366418 2.033089 2.186985
v -0.366418 2.033089 -2.186985
v 0.366418 2.033089 -2.186985
v 0.354336 -0.460058 1.212315
v -0.354336 -0.460058 1.212315
v -0.354336 -0.460058 -1.212315
v 0.354336 -0.460058 -1.212315
v 0.194091 -0.460058 1.974670
v -0.194091 -0.460058 1.974670
v -0.194091 -0.460058 -1.974670
v 0.194091 -0.460058 -1.974670
v 0.615919 3.563515 1.000000
v -0.615919 3.563515 1.000000
v 0.615919 3.563515 -1.000000
v -0.615919 3.563515 -1.000000
v 0.545587 4.658696 0.587726
v -0.545587 4.658696 0.587726
v 0.545587 4.658696 -0.587726
v -0.545587 4.658696 -0.587726
vn -0.9786 -0.0000 0.2057
vn -0.0000 -0.0000 1.0000
vn -0.9956 0.0940 -0.0000
vn -0.0000 -1.0000 -0.0000
vn 0.9956 0.0940 -0.0000
vn -0.0000 -0.0000 -1.0000
vn -1.0000 -0.0000 -0.0000
vn 0.9786 -0.0000 0.2057
vn 1.0000 -0.0000 -0.0000
vn 0.9786 -0.0000 -0.2057
vn -0.0000 1.0000 -0.0000
vn -0.9786 -0.0000 -0.2057
vn -0.0000 0.9967 -0.0813
vn -0.4312 0.9023 -0.0000
vn 0.4312 0.9023 -0.0000
vn -0.0000 0.9967 0.0813
vt 0.625000 0.000000
vt 0.375000 0.750000
vt 0.625000 0.750000
vt 0.625000 1.000000
vt 0.375000 1.000000
vt 0.375000 0.000000
vt 0.625000 0.250000
vt 0.375000 0.250000
vt 0.125000 0.500000
vt 0.375000 0.500000
vt 0.125000 0.750000
vt 0.625000 0.500000
vt 0.854132 0.512853
vt 0.854132 0.737147
vt 0.625000 0.798518
vt 0.625000 0.813976
vt 0.625000 0.951482
vt 0.875000 0.500000
vt 0.875000 0.750000
vt 0.625000 0.298518
vt 0.625000 0.451482
vt 0.625000 0.936024
vt 0.625000 0.436024
vt 0.625000 0.313976
vt 0.645868 0.737147
vt 0.645868 0.512853
s 0
usemtl Material
f 38/1/1 22/1/1 26/1/1 18/1/1
f 4/2/2 21/3/2 22/4/2 8/5/2
f 8/6/3 22/1/3 23/7/3 6/8/3
f 6/9/4 2/10/4 4/2/4 8/11/4
f 2/10/5 24/12/5 21/3/5 4/2/5
f 6/8/6 23/7/6 24/12/6 2/10/6
f 11/13/7 12/14/7 42/14/7 44/13/7
f 3/15/8 13/16/8 33/16/8 29/15/8
f 23/7/7 22/1/7 38/1/7 40/7/7
f 21/3/9 24/12/9 39/12/9 37/3/9
f 28/12/6 27/7/6 19/7/6 20/12/6
f 26/4/2 25/3/2 17/3/2 18/4/2
f 39/12/10 24/12/10 28/12/10 20/12/10
f 7/17/6 3/15/6 29/15/6 30/17/6
f 40/18/11 39/12/11 20/12/11 19/18/11
f 21/3/8 37/3/8 17/3/8 25/3/8
f 23/7/12 40/7/12 19/7/12 27/7/12
f 37/3/11 38/19/11 18/19/11 17/3/11
f 3/15/4 7/17/4 22/4/4 21/3/4
f 5/20/4 1/21/4 24/12/4 23/7/4
f 14/22/4 13/16/4 25/3/4 26/4/4
f 16/23/4 15/24/4 27/7/4 28/12/4
f 15/24/4 5/20/4 23/7/4 27/7/4
f 1/21/4 16/23/4 28/12/4 24/12/4
f 7/17/4 14/22/4 26/4/4 22/4/4
f 13/16/4 3/15/4 21/3/4 25/3/4
f 32/21/4 31/20/4 35/24/4 36/23/4
f 30/17/4 29/15/4 33/16/4 34/22/4
f 16/23/10 1/21/10 32/21/10 36/23/10
f 15/24/6 16/23/6 36/23/6 35/24/6
f 1/21/2 5/20/2 31/20/2 32/21/2
f 14/22/1 7/17/1 30/17/1 34/22/1
f 5/20/12 15/24/12 35/24/12 31/20/12
f 13/16/2 14/22/2 34/22/2 33/16/2
f 10/25/13 12/14/13 38/19/13 37/3/13
f 9/26/14 10/25/14 37/3/14 39/12/14
f 12/14/15 11/13/15 40/18/15 38/19/15
f 11/13/16 9/26/16 39/12/16 40/18/16
f 43/26/11 44/13/11 42/14/11 41/25/11
f 12/14/2 10/25/2 41/25/2 42/14/2
f 9/26/6 11/13/6 44/13/6 43/26/6
f 10/25/9 9/26/9 43/26/9 41/25/9
